<?xml version="1.0" encoding="utf-8"?>
<!-- Generator: Adobe Illustrator 15.0.0, SVG Export Plug-In . SVG Version: 6.00 Build 0)  -->
<!DOCTYPE svg PUBLIC "-//W3C//DTD SVG 1.1//EN" "http://www.w3.org/Graphics/SVG/1.1/DTD/svg11.dtd">
<svg version="1.1" id="Layer_1" xmlns="http://www.w3.org/2000/svg" xmlns:xlink="http://www.w3.org/1999/xlink" x="0px" y="0px"
	 width="595.28px" height="841.89px" viewBox="0 0 595.28 841.89" enable-background="new 0 0 595.28 841.89" xml:space="preserve">
<g>
	<path fill="none" stroke="#FFFFFF" stroke-width="12" stroke-miterlimit="10" d="M550.664,776.743"/>
	<polyline fill="none" stroke="#FFFFFF" stroke-width="12" stroke-miterlimit="10" points="198.358,719.666 201.003,719.19 
		315.138,698.67 381.399,776.086 410.923,727.538 550.664,778.711 	"/>
	<polyline fill="none" stroke="#FFFFFF" stroke-width="12" stroke-miterlimit="10" points="410.923,727.538 532.952,721.634 
		441.431,671.444 410.923,727.538 315.138,698.67 272.166,633.064 201.003,719.19 381.399,776.086 	"/>
	<path fill="none" stroke="#FFFFFF" stroke-width="12" stroke-miterlimit="10" d="M410.923,727.538"/>
	<path fill="none" stroke="#FFFFFF" stroke-width="12" stroke-miterlimit="10" d="M441.431,671.444"/>
	<polyline fill="none" stroke="#FFFFFF" stroke-width="12" stroke-miterlimit="10" points="204.262,544.496 272.166,633.064 
		383.369,644.874 315.138,698.67 	"/>
	<polyline fill="none" stroke="#FFFFFF" stroke-width="12" stroke-miterlimit="10" points="445.367,665.54 495.555,597.637 
		415.844,578.938 383.369,644.874 410.923,727.538 441.431,671.444 516.222,667.509 	"/>
	<polyline fill="none" stroke="#FFFFFF" stroke-width="12" stroke-miterlimit="10" points="392.225,21.94 440.446,77.05 
		456.193,160.698 462.098,232.537 432.572,316.185 398.13,408.69 362.701,483.481 328.259,550.4 274.134,629.13 	"/>
	<polyline fill="none" stroke="#FFFFFF" stroke-width="12" stroke-miterlimit="10" points="470.954,49.495 440.446,77.05 
		534.92,89.843 456.193,160.698 580.188,166.602 462.098,232.537 584.125,265.012 432.572,316.185 564.441,341.771 398.13,408.69 
		523.11,432.309 362.701,483.481 466.033,505.133 328.259,550.4 384.353,640.938 	"/>
	<polyline fill="none" stroke="#FFFFFF" stroke-width="12" stroke-miterlimit="10" points="328.259,550.4 415.844,578.938 
		441.431,671.444 383.369,644.874 	"/>
	
		<line fill="none" stroke="#FFFFFF" stroke-width="12" stroke-miterlimit="10" x1="466.033" y1="505.133" x2="415.844" y2="574.02"/>
	<path fill="none" stroke="#FFFFFF" stroke-width="12" stroke-miterlimit="10" d="M106.752,561.195l-56.131-64.876l88.691-28.584
		L41.914,406.88c-3.685,8.189-16.757,37.238-16.757,37.238l21.65,15.746c0,0-13.776,13.777-13.777,13.777
		c0.28-0.28,16.88,19.587,17.591,22.678c2.619,11.407-8.283,24.684-10.341,35.716c-1.582,8.474-3.737,12.455,2.693,18.646
		c3.045,2.932,7.283,5.04,11.021,6.938C69.215,565.35,89.123,564.178,106.752,561.195c11.896-2.012,22.32-5.959,34.513-7.7
		c21-2.999,41.998-5.999,62.998-8.999l-5.904,234.215h352.306L468,501.195c57.078-62.981,57.078-62.981,57.078-62.981l39.363-96.442
		l19.684-76.759V168.57L534.92,85.907L468,44.574l-80.696-23.618H237.722l-98.41,45.269l-49.205,47.236L76.33,192.189
		c0,0-1.906,70.498-1.967,72.768c-0.387,14.315-6.895,30.646-10.029,44.551c-5.592,24.816-11.185,49.632-16.776,74.448
		c-1.144,5.078-1.389,15.329-4.429,19.653c-6.834,9.724-26.762-5.778-29.795-14.615c-4.45-12.966-1.592-22.361,6.637-32.194
		c18.422-22.021,28.502-49.855,48.488-70.137"/>
	<path fill="none" stroke="#FFFFFF" stroke-width="12" stroke-miterlimit="10" d="M146.201,382.12L43.129,403.608L146.201,382.12z"
		/>
	<path fill="none" stroke="#FFFFFF" stroke-width="12" stroke-miterlimit="10" d="M160.962,196.125l-86.599,68.832L160.962,196.125z
		"/>
	<polyline fill="none" stroke="#FFFFFF" stroke-width="12" stroke-miterlimit="10" points="272.166,633.064 254.451,534.654 
		271.182,482.498 280.423,407.641 281.022,402.786 260.356,309.296 160.962,196.125 214.104,163.65 234.77,126.254 374.513,126.254 
		283.974,210.887 261.34,304.376 215.087,165.619 281.514,208.918 341.053,234.997 374.513,130.191 462.098,230.569 
		345.973,236.965 429.128,315.693 349.417,325.534 394.686,407.214 282.499,407.706 360.243,481.514 274.134,482.005 
		326.291,548.434 256.912,532.687 205.247,542.528 139.312,467.735 106.836,557.78 	"/>
	<polyline fill="none" stroke="#FFFFFF" stroke-width="12" stroke-miterlimit="10" points="73.704,269.606 144.559,381.793 
		184.907,332.26 76.329,268.294 	"/>
	<polygon fill="none" stroke="#FFFFFF" stroke-width="12" stroke-miterlimit="10" points="261.668,306.675 342.036,237.789 
		346.3,326.028 	"/>
	<polyline fill="none" stroke="#FFFFFF" stroke-width="12" stroke-miterlimit="10" points="77.642,197.44 159.649,197.44 
		92.403,113.136 	"/>
	<polyline fill="none" stroke="#FFFFFF" stroke-width="12" stroke-miterlimit="10" points="390.258,22.924 284.466,74.589 
		237.722,20.956 	"/>
	<polyline fill="none" stroke="#FFFFFF" stroke-width="12" stroke-miterlimit="10" points="144.724,66.471 282.335,76.068 
		438.806,78.364 377.138,124.289 282.006,78.036 233.129,125.273 145.546,67.867 211.48,163.325 94.044,113.464 	"/>
	
		<line fill="none" stroke="#FFFFFF" stroke-width="12" stroke-miterlimit="10" x1="283.974" y1="210.887" x2="234.77" y2="126.254"/>
	<polyline fill="none" stroke="#FFFFFF" stroke-width="12" stroke-miterlimit="10" points="141.28,468.228 252.976,531.21 
		202.294,461.832 142.756,466.261 146.201,382.12 200.326,459.372 184.907,332.26 278.562,406.23 203.771,459.864 269.705,479.545 	
		"/>
	<line fill="none" stroke="#FFFFFF" stroke-width="12" stroke-miterlimit="10" x1="346.3" y1="326.028" x2="281.022" y2="402.786"/>
	<polyline fill="none" stroke="#FFFFFF" stroke-width="12" stroke-miterlimit="10" points="260.356,309.296 184.907,332.26 
		159.649,197.44 	"/>
	
		<line fill="none" stroke="#FFFFFF" stroke-width="12" stroke-miterlimit="10" x1="374.513" y1="126.254" x2="453.239" y2="160.698"/>
</g>
</svg>
